<?xml version="1.0" encoding="utf-8"?>
<!-- Generator: Adobe Illustrator 19.1.0, SVG Export Plug-In . SVG Version: 6.00 Build 0)  -->
<svg version="1.1" xmlns="http://www.w3.org/2000/svg" xmlns:xlink="http://www.w3.org/1999/xlink" x="0px" y="0px"
	 viewBox="-12 176.2 815.6 244.1" style="enable-background:new -12 176.2 815.6 244.1;" xml:space="preserve">
<style type="text/css">
	.st0{enable-background:new    ;}
	.st1{fill:#010101;}
	.st2{fill:#FFFFFF;}
</style>
<g id="Layer_1">
	<g class="st0">
		<path class="st1" d="M308.8,284.9c0-3.9-1.4-7-4.3-9.3c-2.8-2.3-7.8-4.4-14.8-6.4c-7.1-1.9-12.2-4.1-15.5-6.5s-4.9-6-4.9-10.6
			s1.9-8.3,5.8-11.1c3.9-2.7,8.8-4.1,14.8-4.1s11,1.7,14.8,5.1s5.7,7.7,5.6,13l-0.1,0.3h-2c0-4.6-1.7-8.4-5.1-11.5
			c-3.4-3-7.8-4.5-13.2-4.5c-5.6,0-10.1,1.3-13.3,3.8c-3.3,2.5-4.9,5.5-4.9,9s1.4,6.4,4.1,8.8c2.7,2.3,7.6,4.4,14.7,6.2
			c6.9,1.8,12,4,15.5,6.7c3.5,2.6,5.3,6.3,5.3,11.2c0,4.9-2,8.8-6,11.6c-4,2.8-9,4.2-15,4.2c-6.2,0-11.6-1.5-16-4.4
			c-4.5-2.9-6.6-7.5-6.5-13.7l0.1-0.3h1.9c0,5.6,2.1,9.7,6.2,12.2s8.9,3.8,14.3,3.8c5.4,0,9.9-1.2,13.4-3.7
			C307,292.1,308.8,288.8,308.8,284.9z"/>
		<path class="st1" d="M365.3,237.8v42c0,6.7-2,11.9-5.9,15.5s-9,5.4-15.3,5.4c-6.3,0-11.4-1.8-15.3-5.4s-5.8-8.7-5.8-15.5v-42h2.3
			v42c0,5.8,1.8,10.4,5.3,13.6c3.5,3.3,8.1,4.9,13.6,4.9s10-1.6,13.6-4.9c3.5-3.3,5.3-7.8,5.3-13.6v-42H365.3z"/>
		<path class="st1" d="M383.9,273.1v26.6h-2.3v-61.9h19.3c6.4,0,11.3,1.6,14.8,4.8s5.2,7.5,5.2,12.8c0,5.4-1.7,9.7-5.2,12.9
			s-8.4,4.8-14.8,4.8L383.9,273.1L383.9,273.1z M383.9,270.8h17c5.9,0,10.3-1.5,13.2-4.4c3-2.9,4.4-6.6,4.4-10.9
			c0-4.5-1.5-8.2-4.4-11.1c-2.9-2.9-7.4-4.4-13.3-4.4h-17v30.8H383.9z"/>
		<path class="st1" d="M467.3,268.6h-31v28.8h35.4v2.3H434v-61.9h37.7v2.3h-35.4v26.2h31V268.6z"/>
		<path class="st1" d="M485.6,270.6v29.1h-2.3v-61.9H503c6.5,0,11.5,1.4,15.1,4.2c3.6,2.8,5.3,6.9,5.3,12.4c0,3.5-1.1,6.7-3.3,9.5
			c-2.2,2.8-5.3,4.7-9.1,5.5c4.5,0.8,7.6,2.4,9.6,4.9c1.9,2.5,2.9,5.7,2.9,9.6v5.8c0,1.9,0.2,3.7,0.7,5.2s1.2,2.8,2.3,3.7v1.1h-2.3
			c-1-1.2-1.8-2.6-2.3-4.3c-0.5-1.7-0.8-3.6-0.8-5.8v-5.7c0-4.2-1.4-7.5-4.3-9.8c-2.9-2.4-7-3.5-12.3-3.5L485.6,270.6L485.6,270.6z
			 M485.6,268.4h17c6.3,0,11-1.3,14-4s4.5-6,4.5-9.9c0-4.6-1.5-8.2-4.5-10.6c-3-2.5-7.5-3.7-13.5-3.7h-17.4v28.2H485.6z"/>
		<path class="st1" d="M594.7,268.6h-31v28.8h35.4v2.3h-37.7v-61.9h37.7v2.3h-35.4v26.2h31V268.6z"/>
		<path class="st1" d="M627.2,293.7l1.1,3.4h0.3l1.1-3.4l20.8-55.9h2.5l-23.1,61.9h-2.8L604,237.8h2.5L627.2,293.7z"/>
		<path class="st1" d="M666.9,299.7h-2.3v-61.9h2.3V299.7z"/>
		<path class="st1" d="M687.9,297.4h31.8v2.3h-34.1v-61.9h2.3L687.9,297.4L687.9,297.4z"/>
	</g>
	<g class="st0">
		<path class="st1" d="M213.7,346.8l-8.4,1.3c-2.8,0.4-5.7,0.9-8.8,1.4c-0.4-1.8-0.6-4.3-0.4-7.4c0.1-3.1,1.2-7.4,3.1-12.9
			c7.4-1.9,15-3.9,22.8-5.8c7.8-2,19.1-3.6,34.1-4.9c0,3.5-0.7,7.6-2,12.4s-2.6,9.4-3.9,14c-6.4-0.3-11.8-0.4-16.1-0.2
			c-3.1,11.4-5.2,22.3-6.4,32.6c-1.2,10.3-2.3,19.9-3.5,28.7l-26.4,5c1.3-8.8,3.2-18.7,5.8-29.6s5.3-21.1,8-30.4
			C212.1,349.2,212.7,347.8,213.7,346.8z"/>
		<path class="st1" d="M313.3,328.8c5.2,8,6.8,18.5,4.7,31.4c-2.2,12.9-7.4,24.4-15.4,34.6c-8,10.2-17.4,15.6-28.2,16.2
			c-10.7,0.9-18.2-3.4-22.5-12.8c-4.3-9.4-5.3-20.5-3.1-33.4c2.1-12.9,6.7-23.8,14-32.7c7.2-8.9,16.2-13.8,26.9-14.5
			C300.2,317,308,320.8,313.3,328.8z M277.6,351.6c-3.5,4.4-6.1,9.9-7.8,16.7c-1.6,6.7-1.8,12.5-0.4,17.4c1.4,4.9,4.2,7.2,8.6,6.9
			c4.4-0.4,8.4-3.2,12.1-8.2c3.7-5,6.4-11.2,8.2-18.6c2.9-14-0.1-21-9.2-20.8C284.9,345.1,281.1,347.2,277.6,351.6z"/>
		<path class="st1" d="M346.5,362c8.8-1.2,17.9-2.1,27.3-2.7l-7.1,21c-8.1-0.6-16.1-0.4-23.9,0.5c-7.9,0.9-15.8,2.1-23.7,3.5l2.6-17
			C329.4,365,337.7,363.2,346.5,362z"/>
		<path class="st1" d="M395.8,345.9c-1.9,0.4-3.7,0.8-5.2,1.2s-3,0.7-4.2,1c-0.1-1.8,0-4.2,0.4-7.4c0.4-3.1,1.6-7.3,3.4-12.6
			c6-1.9,13.1-3.9,21.2-5.8c8.2-2,15.1-2.7,20.8-2.3c6.9,0.6,12.5,3.5,16.9,8.9s7.1,11.6,8.1,18.8c0.6,4.9-0.1,11-2.1,18.4
			s-4.8,13.3-8.6,17.7c-5.6,6.6-10.8,11.5-15.7,14.7c-4.9,3.2-9.8,5.7-14.6,7.5c-8.9,3.1-16.2,4.6-21.9,4.5c-5.7-0.1-11.3,0-17,0.3
			c-0.3,0-0.3-0.3,0-0.9c1.3-8.5,3.3-17.9,6-28.3c2.7-10.4,5.5-20,8.3-29.1C392.3,350,393.7,347.8,395.8,345.9z M411.5,391.4
			c2.9-1.8,6.5-4.5,10.8-8.2c3.8-3.1,6.2-8.2,7.2-15.4s1.2-11.8,0.5-13.8c-2.4-6.7-7.5-10.3-15.6-10.8c-2.9,9.4-5.3,18.4-7.1,27.2
			c-1.8,8.7-3.2,17-4.2,24.8C405.8,394.5,408.6,393.2,411.5,391.4z"/>
		<path class="st1" d="M519.7,328.8c5.2,8,6.8,18.5,4.7,31.4c-2.2,12.9-7.4,24.4-15.4,34.6c-8,10.2-17.4,15.6-28.2,16.2
			c-10.7,0.9-18.2-3.4-22.5-12.8c-4.3-9.4-5.3-20.5-3.1-33.4c2.1-12.9,6.7-23.8,14-32.7c7.2-8.9,16.2-13.8,26.9-14.5
			C506.6,317,514.5,320.8,519.7,328.8z M484.1,351.6c-3.5,4.4-6.1,9.9-7.8,16.7c-1.6,6.7-1.8,12.5-0.4,17.4s4.2,7.2,8.6,6.9
			c4.4-0.4,8.4-3.2,12.1-8.2s6.4-11.2,8.2-18.6c2.9-14-0.1-21-9.2-20.8C491.4,345.1,487.6,347.2,484.1,351.6z"/>
		<path class="st1" d="M600,320.5c2.3-0.4,4.8-0.5,7.5-0.5c-2.2,8.4-4.4,17.5-6.6,27.4s-4.1,19.5-5.6,28.9c-0.7,3.4-1.8,6.3-3.3,8.8
			c8.5-1.6,18.4-2.4,29.7-2.1l-6.7,22.9c-13.5,0.1-23.4,0.4-30,0.9c-6.5,0.4-14.1,1.9-22.7,4.4l3.9-18.7l2.9-0.9
			c0.1-1,0.3-2.2,0.5-3.5c0.2-1.3,0.5-3.1,1-5.3c2.6-10.9,5.6-21.7,8.8-32.4c3.2-10.7,6.2-19.4,9-26.1
			C593.9,322.1,597.7,320.8,600,320.5z"/>
		<path class="st1" d="M657.2,323.8c2.6-0.4,5.3-0.6,8.3-0.8c-3.1,12.6-6,27-8.8,43.3c-2.8,16.3-4.8,29.4-6,39.3l-26.3,5.3
			c1.9-12.9,4.9-27.6,9-44.3c4.1-16.7,7.9-29.6,11.6-39C650.7,325.5,654.7,324.2,657.2,323.8z"/>
		<path class="st1" d="M722.2,320.4c9.2,2.3,13.4,5,12.5,8.1c-1.9,7.4-3.5,13.6-4.8,18.6c-1.3,4.9-2.8,9-4.4,12.2
			c-5-3.2-9.3-6.2-12.8-8.8c-3.5-2.6-7.4-3.7-11.8-3.1c-2.4,0.3-4.6,1.7-6.8,4.2c-2.1,2.5-1.2,5.2,2.8,8.2c1.8,1.3,4.5,3.1,8,5.6
			c3.6,2.4,6.3,4.8,8.2,7.2c4.4,5.3,6.3,11.5,5.8,18.7c-0.6,6.4-3.6,11.3-9.1,14.7s-11.5,5-17.9,5c-5.6,0.1-10.9-1.1-16.1-3.8
			c-5.2-2.6-8.5-5.3-10.1-7.9l7.7-13.3c3.1,2.6,6.2,4.8,9.4,6.4c3.2,1.6,6.3,2.3,9.2,2c4.2-0.3,6.1-2.5,5.7-6.5
			c-1-2.1-3.5-4.4-7.5-7.1c-2.5-1.6-5.1-3.5-7.8-5.5s-5.1-4.3-7.4-6.8c-5.4-6-7-13.3-4.8-21.8c0.9-4.1,3-8.6,6.5-13.6
			s8.6-8.9,15.3-11.7c2.9-1,5.7-1.9,8.4-2.6C705.8,317.6,713,318.1,722.2,320.4z"/>
		<path class="st1" d="M751.9,346.8l-8.4,1.3c-2.8,0.4-5.7,0.9-8.8,1.4c-0.4-1.8-0.6-4.3-0.4-7.4c0.1-3.1,1.2-7.4,3.1-12.9
			c7.4-1.9,15-3.9,22.8-5.8c7.8-2,19.1-3.6,34.1-4.9c0,3.5-0.7,7.6-2,12.4s-2.6,9.4-3.9,14c-6.4-0.3-11.8-0.4-16.1-0.2
			c-3.1,11.4-5.2,22.3-6.4,32.6c-1.2,10.3-2.3,19.9-3.5,28.7l-26.4,5c1.3-8.8,3.2-18.7,5.8-29.6s5.3-21.1,8-30.4
			C750.3,349.2,750.9,347.8,751.9,346.8z"/>
	</g>
</g>
<g id="Layer_2">
	<path class="st1" d="M179.3,394.1c-1.7-8.3-9.3-7.2-12.7-7.2s1.1-43.6,1.1-63.7c0-7.3-5.1-13.6-7.4-17.2c0,0-0.2-0.4-0.7-1
		c-0.6-6.8-2.2-13.4-4.6-19.5c12.3-5.6,20.9-18,20.9-32.4c0-19.7-16-35.6-35.6-35.6c-2.3,0-4.6,0.2-6.9,0.7
		c-8.5-6.5-19-11.1-30.7-13.2c0.5-1.6,1.4-3.6,2.6-4.8c2.4-2.4,4.1-2.5,2.6-5.5c-1.5-3-6.4-1.8-9.8,1c-2.9,2.4-3.6,5.5-3.8,6.4
		c0.3-1.4,2.4-9.8-1.2-14.9c-4-5.6-15.8-8.2-16.1-5.7c-0.4,2.4,3.1,0.5,5.5,6.1s-0.2,12.4-0.2,12.4s-4.4-10.6-13.7-6.8
		c-5,2.2,2.9,0.1,6.6,7.6c0.6,1.3,1.1,2.6,1.5,3.9c-11.6,1.8-22.2,6.1-30.9,12.2c-2.3-0.5-4.6-0.7-7-0.7C19,216.1,3,232.1,3,251.7
		c0,13.7,7.7,25.6,19.1,31.6c-3.2,7.3-5.1,15.3-5.6,23.7c-2.5,3.7-6.8,9.5-6.8,16.2c0,20.1,4.5,63.7,1.1,63.7s-11-1.1-12.7,7.2
		c-1.7,8.3,3.2,9.1,3.7,6.9c0.5-2.3,0.5-6.3,5.2-5.4c3.4,0.8-3.2,12.6,3.7,12c6.9-0.5,1.2-11.9,3.9-11.8c3.7,0.2,4.9,0.6,4.1,7.6
		c-0.6,5.6,6.9,3.5,6.6-4.4c-0.2-6.8-5.7-9.2-6.1-9.9c-0.5-0.9-0.5-2-0.5-3.7c0-5.2-2.4-40.6,0.8-54.3c6.8,18.7,23.9,28.5,45.7,32.2
		c0.7,5.2,1.3,10.5,1.6,15.2c1.2,16.7,0.6,23.3-4,23.9c-4.8,0.6-10.6,5.7-9.4,10c1.2,4.3,18.2,1.7,18.5-4.3
		c0.2-3.6,2.7-26.3,3.2-43.6c4.2,0.4,8.6,0.6,13,0.6c6.5,0,12.8-0.4,18.8-1.2c0.3,17.2,3.1,39.6,3.3,43.1c0.3,6,17.3,8.6,18.5,4.3
		c1.2-4.3-4.7-9.5-9.4-10c-4.8-0.6-5.2-7.3-4-23.9c0.3-4.7,0.9-10,1.7-15.3c19.6-4.6,34.7-14.8,40.4-32.9c0.2,0.4,0.4,0.9,0.5,1.5
		c3.3,13.5,0.8,49.5,0.8,54.7c0,1.7,0,2.8-0.5,3.7c-0.4,0.7-5.9,3.1-6.1,9.9c-0.3,7.9,7.2,10,6.6,4.4c-0.7-7,0.4-7.4,4.1-7.6
		c2.7-0.1-3,11.3,3.9,11.8c6.9,0.6,0.3-11.1,3.7-12c4.7-0.8,4.7,3.1,5.2,5.4C176.1,403.2,181,402.4,179.3,394.1z"/>
	<path class="st2" d="M59.4,249.8c0,13.3-10.8,24-24,24c-13.3,0-24-10.8-24-24c0-13.2,10.8-24,24-24
		C48.7,225.8,59.4,236.6,59.4,249.8"/>
	<path class="st1" d="M42,249.8c0,3.7-2.9,6.6-6.6,6.6c-3.7,0-6.6-2.9-6.6-6.6c0-3.7,2.9-6.6,6.6-6.6C39.1,243.2,42,246.2,42,249.8"
		/>
	<path class="st2" d="M166.3,249.8c0,13.3-10.8,24-24,24c-13.3,0-24-10.8-24-24c0-13.2,10.8-24,24-24
		C155.7,225.8,166.3,236.6,166.3,249.8"/>
	<path class="st1" d="M149,249.8c0,3.7-2.9,6.6-6.6,6.6s-6.6-2.9-6.6-6.6c0-3.7,2.9-6.6,6.6-6.6S149,246.2,149,249.8"/>
</g>
</svg>
